<mxfile host="Electron" agent="Mozilla/5.0 (Windows NT 10.0; Win64; x64) AppleWebKit/537.36 (KHTML, like Gecko) draw.io/27.0.9 Chrome/134.0.6998.205 Electron/35.4.0 Safari/537.36" version="27.0.9">
  <diagram name="Page-1" id="5f0bae14-7c28-e335-631c-24af17079c00">
    <mxGraphModel dx="3944" dy="1278" grid="1" gridSize="10" guides="1" tooltips="1" connect="1" arrows="1" fold="1" page="1" pageScale="1" pageWidth="1100" pageHeight="850" background="none" math="0" shadow="0">
      <root>
        <mxCell id="0" />
        <mxCell id="1" parent="0" />
        <mxCell id="RrS9UAQe1hWwMfHWjZzp-71" value="" style="edgeStyle=orthogonalEdgeStyle;rounded=0;orthogonalLoop=1;jettySize=auto;html=1;endArrow=classic;startFill=0;endFill=1;" edge="1" parent="1" source="39150e848f15840c-1">
          <mxGeometry relative="1" as="geometry">
            <mxPoint x="200" y="230" as="targetPoint" />
          </mxGeometry>
        </mxCell>
        <mxCell id="39150e848f15840c-1" value="DataCleaner" style="verticalAlign=top;align=left;spacingTop=8;spacingLeft=2;spacingRight=12;shape=cube;size=10;direction=south;fontStyle=4;html=1;rounded=0;shadow=0;comic=0;labelBackgroundColor=none;strokeWidth=1;fontFamily=Verdana;fontSize=12" parent="1" vertex="1">
          <mxGeometry x="310" y="130" width="420" height="200" as="geometry" />
        </mxCell>
        <mxCell id="RrS9UAQe1hWwMfHWjZzp-69" value="" style="edgeStyle=orthogonalEdgeStyle;rounded=0;orthogonalLoop=1;jettySize=auto;html=1;endArrow=classic;startFill=0;endFill=1;" edge="1" parent="1" source="39150e848f15840c-2">
          <mxGeometry relative="1" as="geometry">
            <mxPoint x="200" y="450" as="targetPoint" />
          </mxGeometry>
        </mxCell>
        <mxCell id="RrS9UAQe1hWwMfHWjZzp-92" value="" style="edgeStyle=orthogonalEdgeStyle;rounded=0;orthogonalLoop=1;jettySize=auto;html=1;entryX=0;entryY=0.915;entryDx=0;entryDy=0;entryPerimeter=0;" edge="1" parent="1" source="39150e848f15840c-2" target="RrS9UAQe1hWwMfHWjZzp-19">
          <mxGeometry relative="1" as="geometry">
            <mxPoint x="390" y="550" as="targetPoint" />
            <Array as="points">
              <mxPoint x="364" y="480" />
            </Array>
          </mxGeometry>
        </mxCell>
        <mxCell id="RrS9UAQe1hWwMfHWjZzp-122" value="" style="edgeStyle=orthogonalEdgeStyle;rounded=0;orthogonalLoop=1;jettySize=auto;html=1;entryX=0;entryY=0.843;entryDx=0;entryDy=0;entryPerimeter=0;dashed=1;" edge="1" parent="1" source="39150e848f15840c-2" target="39150e848f15840c-3">
          <mxGeometry relative="1" as="geometry">
            <mxPoint x="320" y="770" as="targetPoint" />
            <Array as="points">
              <mxPoint x="301" y="480" />
              <mxPoint x="301" y="610" />
            </Array>
          </mxGeometry>
        </mxCell>
        <mxCell id="39150e848f15840c-2" value="SkinLessionDataset" style="verticalAlign=top;align=left;spacingTop=8;spacingLeft=2;spacingRight=12;shape=cube;size=10;direction=south;fontStyle=4;html=1;rounded=0;shadow=0;comic=0;labelBackgroundColor=none;strokeWidth=1;fontFamily=Verdana;fontSize=12" parent="1" vertex="1">
          <mxGeometry x="400" y="350" width="330" height="200" as="geometry" />
        </mxCell>
        <mxCell id="RrS9UAQe1hWwMfHWjZzp-62" value="" style="edgeStyle=orthogonalEdgeStyle;rounded=0;orthogonalLoop=1;jettySize=auto;html=1;endArrow=classic;startFill=0;endFill=1;" edge="1" parent="1" source="39150e848f15840c-3">
          <mxGeometry relative="1" as="geometry">
            <mxPoint x="200" y="900" as="targetPoint" />
          </mxGeometry>
        </mxCell>
        <mxCell id="RrS9UAQe1hWwMfHWjZzp-96" value="" style="edgeStyle=orthogonalEdgeStyle;rounded=0;orthogonalLoop=1;jettySize=auto;html=1;" edge="1" parent="1" source="39150e848f15840c-3" target="RrS9UAQe1hWwMfHWjZzp-20">
          <mxGeometry relative="1" as="geometry">
            <Array as="points">
              <mxPoint x="580" y="1010" />
              <mxPoint x="580" y="1010" />
            </Array>
          </mxGeometry>
        </mxCell>
        <mxCell id="39150e848f15840c-3" value="UNetModel" style="verticalAlign=top;align=left;spacingTop=8;spacingLeft=2;spacingRight=12;shape=cube;size=10;direction=south;fontStyle=4;html=1;rounded=0;shadow=0;comic=0;labelBackgroundColor=none;strokeWidth=1;fontFamily=Verdana;fontSize=12" parent="1" vertex="1">
          <mxGeometry x="220" y="800" width="510" height="200" as="geometry" />
        </mxCell>
        <mxCell id="39150e848f15840c-4" value="«interface»&lt;br&gt;&lt;b&gt;DataLoader&lt;/b&gt;&lt;div&gt;(Loads images and masks)&lt;/div&gt;" style="html=1;rounded=0;shadow=0;comic=0;labelBackgroundColor=none;strokeWidth=1;fontFamily=Verdana;fontSize=12;align=center;" parent="1" vertex="1">
          <mxGeometry x="540" y="270" width="170" height="50" as="geometry" />
        </mxCell>
        <mxCell id="RrS9UAQe1hWwMfHWjZzp-108" value="" style="edgeStyle=orthogonalEdgeStyle;rounded=0;orthogonalLoop=1;jettySize=auto;html=1;endArrow=open;endFill=0;" edge="1" parent="1" source="39150e848f15840c-5" target="39150e848f15840c-4">
          <mxGeometry relative="1" as="geometry">
            <mxPoint x="425" y="270" as="targetPoint" />
            <Array as="points" />
          </mxGeometry>
        </mxCell>
        <mxCell id="RrS9UAQe1hWwMfHWjZzp-109" value="" style="edgeStyle=orthogonalEdgeStyle;rounded=0;orthogonalLoop=1;jettySize=auto;html=1;endArrow=open;endFill=0;" edge="1" parent="1" source="39150e848f15840c-5" target="RrS9UAQe1hWwMfHWjZzp-8">
          <mxGeometry relative="1" as="geometry" />
        </mxCell>
        <mxCell id="39150e848f15840c-5" value="&lt;b&gt;Data Preprocessing&lt;/b&gt;" style="shape=component;align=left;spacingLeft=36;rounded=0;shadow=0;comic=0;labelBackgroundColor=none;strokeWidth=1;fontFamily=Verdana;fontSize=12;html=1;" parent="1" vertex="1">
          <mxGeometry x="440" y="147.5" width="180" height="45" as="geometry" />
        </mxCell>
        <mxCell id="RrS9UAQe1hWwMfHWjZzp-107" value="" style="edgeStyle=orthogonalEdgeStyle;rounded=0;orthogonalLoop=1;jettySize=auto;html=1;endArrow=open;endFill=0;" edge="1" parent="1" source="39150e848f15840c-7" target="39150e848f15840c-8">
          <mxGeometry relative="1" as="geometry">
            <Array as="points">
              <mxPoint x="615" y="460" />
              <mxPoint x="615" y="460" />
            </Array>
          </mxGeometry>
        </mxCell>
        <mxCell id="39150e848f15840c-7" value="&lt;b&gt;Dataset Management&lt;/b&gt;" style="shape=component;align=left;spacingLeft=36;rounded=0;shadow=0;comic=0;labelBackgroundColor=none;strokeWidth=1;fontFamily=Verdana;fontSize=12;html=1;" parent="1" vertex="1">
          <mxGeometry x="520" y="375" width="190" height="40" as="geometry" />
        </mxCell>
        <mxCell id="39150e848f15840c-8" value="«interface»&lt;br&gt;&lt;b&gt;DatasetLoader&lt;/b&gt;&lt;div&gt;(&lt;span style=&quot;background-color: transparent; color: light-dark(rgb(0, 0, 0), rgb(255, 255, 255));&quot;&gt;handle image-mask pairs,&lt;/span&gt;&lt;/div&gt;&lt;div&gt;&lt;span style=&quot;background-color: transparent; color: light-dark(rgb(0, 0, 0), rgb(255, 255, 255));&quot;&gt;Splits data into train/val/test sets&lt;/span&gt;&lt;span style=&quot;background-color: transparent; color: light-dark(rgb(0, 0, 0), rgb(255, 255, 255));&quot;&gt;)&lt;/span&gt;&lt;/div&gt;" style="html=1;rounded=0;shadow=0;comic=0;labelBackgroundColor=none;strokeWidth=1;fontFamily=Verdana;fontSize=12;align=center;" parent="1" vertex="1">
          <mxGeometry x="450" y="475" width="220" height="65" as="geometry" />
        </mxCell>
        <mxCell id="RrS9UAQe1hWwMfHWjZzp-98" value="" style="edgeStyle=orthogonalEdgeStyle;rounded=0;orthogonalLoop=1;jettySize=auto;html=1;endArrow=open;endFill=0;" edge="1" parent="1" source="39150e848f15840c-10" target="RrS9UAQe1hWwMfHWjZzp-41">
          <mxGeometry relative="1" as="geometry">
            <Array as="points">
              <mxPoint x="465" y="900" />
              <mxPoint x="340" y="900" />
            </Array>
          </mxGeometry>
        </mxCell>
        <mxCell id="RrS9UAQe1hWwMfHWjZzp-99" value="" style="edgeStyle=orthogonalEdgeStyle;rounded=0;orthogonalLoop=1;jettySize=auto;html=1;entryX=0.424;entryY=0.033;entryDx=0;entryDy=0;entryPerimeter=0;endArrow=open;endFill=0;" edge="1" parent="1" source="39150e848f15840c-10" target="RrS9UAQe1hWwMfHWjZzp-46">
          <mxGeometry relative="1" as="geometry">
            <mxPoint x="610" y="930" as="targetPoint" />
            <Array as="points">
              <mxPoint x="465" y="900" />
              <mxPoint x="612" y="900" />
            </Array>
          </mxGeometry>
        </mxCell>
        <mxCell id="RrS9UAQe1hWwMfHWjZzp-100" value="" style="edgeStyle=orthogonalEdgeStyle;rounded=0;orthogonalLoop=1;jettySize=auto;html=1;endArrow=open;endFill=0;" edge="1" parent="1" source="39150e848f15840c-10" target="RrS9UAQe1hWwMfHWjZzp-4">
          <mxGeometry relative="1" as="geometry">
            <Array as="points">
              <mxPoint x="465" y="920" />
              <mxPoint x="465" y="920" />
            </Array>
          </mxGeometry>
        </mxCell>
        <mxCell id="39150e848f15840c-10" value="&lt;b&gt;Segmentation Model&lt;/b&gt;" style="shape=component;align=left;spacingLeft=36;rounded=0;shadow=0;comic=0;labelBackgroundColor=none;strokeWidth=1;fontFamily=Verdana;fontSize=12;html=1;" parent="1" vertex="1">
          <mxGeometry x="370" y="825" width="190" height="50" as="geometry" />
        </mxCell>
        <mxCell id="RrS9UAQe1hWwMfHWjZzp-65" value="" style="edgeStyle=orthogonalEdgeStyle;rounded=0;orthogonalLoop=1;jettySize=auto;html=1;endArrow=none;startFill=0;strokeColor=light-dark(#e51010, #ededed);" edge="1" parent="1">
          <mxGeometry relative="1" as="geometry">
            <mxPoint x="200" y="1260" as="sourcePoint" />
            <mxPoint x="190" y="1260" as="targetPoint" />
            <Array as="points">
              <mxPoint x="200" y="1260" />
              <mxPoint x="200" y="220" />
              <mxPoint x="190" y="220" />
              <mxPoint x="190" y="1260" />
            </Array>
          </mxGeometry>
        </mxCell>
        <mxCell id="RrS9UAQe1hWwMfHWjZzp-120" value="" style="edgeStyle=orthogonalEdgeStyle;rounded=0;orthogonalLoop=1;jettySize=auto;html=1;entryX=0;entryY=0;entryDx=95;entryDy=0;entryPerimeter=0;" edge="1" parent="1" source="RrS9UAQe1hWwMfHWjZzp-3" target="39150e848f15840c-1">
          <mxGeometry relative="1" as="geometry">
            <mxPoint x="820" y="200" as="targetPoint" />
            <Array as="points">
              <mxPoint x="770" y="1337" />
              <mxPoint x="770" y="225" />
            </Array>
          </mxGeometry>
        </mxCell>
        <mxCell id="RrS9UAQe1hWwMfHWjZzp-3" value="Lesion Segmentor" style="verticalAlign=top;align=left;spacingTop=8;spacingLeft=2;spacingRight=12;shape=cube;size=10;direction=south;fontStyle=4;html=1;rounded=0;shadow=0;comic=0;labelBackgroundColor=none;strokeWidth=1;fontFamily=Verdana;fontSize=12" vertex="1" parent="1">
          <mxGeometry x="400" y="1240" width="330" height="195" as="geometry" />
        </mxCell>
        <mxCell id="RrS9UAQe1hWwMfHWjZzp-4" value="«interface»&lt;br&gt;&lt;b&gt;ModelTrainer&lt;/b&gt;&lt;div&gt;(Train on lession data)&lt;/div&gt;" style="html=1;rounded=0;shadow=0;comic=0;labelBackgroundColor=none;strokeWidth=1;fontFamily=Verdana;fontSize=12;align=center;" vertex="1" parent="1">
          <mxGeometry x="390" y="935" width="140" height="50" as="geometry" />
        </mxCell>
        <mxCell id="RrS9UAQe1hWwMfHWjZzp-8" value="«interface»&lt;br&gt;&lt;b&gt;DataAugmentor&lt;/b&gt;&lt;div&gt;(resize, normalize, augmentation)&lt;/div&gt;" style="html=1;rounded=0;shadow=0;comic=0;labelBackgroundColor=none;strokeWidth=1;fontFamily=Verdana;fontSize=12;align=center;" vertex="1" parent="1">
          <mxGeometry x="320" y="270" width="210" height="50" as="geometry" />
        </mxCell>
        <mxCell id="RrS9UAQe1hWwMfHWjZzp-67" value="" style="edgeStyle=orthogonalEdgeStyle;rounded=0;orthogonalLoop=1;jettySize=auto;html=1;endArrow=classic;startFill=0;endFill=1;" edge="1" parent="1" source="RrS9UAQe1hWwMfHWjZzp-19">
          <mxGeometry relative="1" as="geometry">
            <mxPoint x="200" y="680" as="targetPoint" />
            <Array as="points">
              <mxPoint x="220" y="680" />
              <mxPoint x="220" y="680" />
            </Array>
          </mxGeometry>
        </mxCell>
        <mxCell id="RrS9UAQe1hWwMfHWjZzp-95" value="" style="edgeStyle=orthogonalEdgeStyle;rounded=0;orthogonalLoop=1;jettySize=auto;html=1;" edge="1" parent="1" source="RrS9UAQe1hWwMfHWjZzp-19">
          <mxGeometry relative="1" as="geometry">
            <mxPoint x="550" y="800" as="targetPoint" />
            <Array as="points">
              <mxPoint x="550" y="780" />
              <mxPoint x="550" y="780" />
            </Array>
          </mxGeometry>
        </mxCell>
        <mxCell id="RrS9UAQe1hWwMfHWjZzp-118" value="" style="edgeStyle=orthogonalEdgeStyle;rounded=0;orthogonalLoop=1;jettySize=auto;html=1;entryX=0.142;entryY=-0.007;entryDx=0;entryDy=0;entryPerimeter=0;" edge="1" parent="1" source="RrS9UAQe1hWwMfHWjZzp-19" target="RrS9UAQe1hWwMfHWjZzp-20">
          <mxGeometry relative="1" as="geometry">
            <mxPoint x="950" y="677.5" as="targetPoint" />
            <Array as="points">
              <mxPoint x="750" y="678" />
              <mxPoint x="750" y="1057" />
            </Array>
          </mxGeometry>
        </mxCell>
        <mxCell id="RrS9UAQe1hWwMfHWjZzp-19" value="Trainer Evaluator " style="verticalAlign=top;align=left;spacingTop=8;spacingLeft=2;spacingRight=12;shape=cube;size=10;direction=south;fontStyle=4;html=1;rounded=0;shadow=0;comic=0;labelBackgroundColor=none;strokeWidth=1;fontFamily=Verdana;fontSize=12" vertex="1" parent="1">
          <mxGeometry x="330" y="580" width="400" height="195" as="geometry" />
        </mxCell>
        <mxCell id="RrS9UAQe1hWwMfHWjZzp-64" value="" style="edgeStyle=orthogonalEdgeStyle;rounded=0;orthogonalLoop=1;jettySize=auto;html=1;endArrow=classic;startFill=0;endFill=1;" edge="1" parent="1" source="RrS9UAQe1hWwMfHWjZzp-20">
          <mxGeometry relative="1" as="geometry">
            <mxPoint x="200" y="1120" as="targetPoint" />
            <Array as="points">
              <mxPoint x="430" y="1120" />
              <mxPoint x="430" y="1120" />
            </Array>
          </mxGeometry>
        </mxCell>
        <mxCell id="RrS9UAQe1hWwMfHWjZzp-97" value="" style="edgeStyle=orthogonalEdgeStyle;rounded=0;orthogonalLoop=1;jettySize=auto;html=1;startArrow=classic;startFill=1;exitX=0.876;exitY=-0.003;exitDx=0;exitDy=0;exitPerimeter=0;entryX=0.103;entryY=0;entryDx=0;entryDy=0;entryPerimeter=0;" edge="1" parent="1" source="RrS9UAQe1hWwMfHWjZzp-20" target="RrS9UAQe1hWwMfHWjZzp-3">
          <mxGeometry relative="1" as="geometry">
            <mxPoint x="750" y="1250" as="targetPoint" />
            <Array as="points">
              <mxPoint x="750" y="1196" />
              <mxPoint x="750" y="1260" />
            </Array>
          </mxGeometry>
        </mxCell>
        <mxCell id="RrS9UAQe1hWwMfHWjZzp-20" value="MetricsLogger" style="verticalAlign=top;align=left;spacingTop=8;spacingLeft=2;spacingRight=12;shape=cube;size=10;direction=south;fontStyle=4;html=1;rounded=0;shadow=0;comic=0;labelBackgroundColor=none;strokeWidth=1;fontFamily=Verdana;fontSize=12" vertex="1" parent="1">
          <mxGeometry x="430" y="1030" width="300" height="190" as="geometry" />
        </mxCell>
        <mxCell id="RrS9UAQe1hWwMfHWjZzp-22" value="«interface»&lt;br&gt;&lt;b&gt;LogTraining&lt;/b&gt;&lt;div&gt;(Records logs, graphs)&lt;/div&gt;" style="html=1;rounded=0;shadow=0;comic=0;labelBackgroundColor=none;strokeWidth=1;fontFamily=Verdana;fontSize=12;align=center;" vertex="1" parent="1">
          <mxGeometry x="440" y="1160" width="140" height="50" as="geometry" />
        </mxCell>
        <mxCell id="RrS9UAQe1hWwMfHWjZzp-101" value="" style="edgeStyle=orthogonalEdgeStyle;rounded=0;orthogonalLoop=1;jettySize=auto;html=1;endArrow=open;endFill=0;" edge="1" parent="1" source="RrS9UAQe1hWwMfHWjZzp-23">
          <mxGeometry relative="1" as="geometry">
            <mxPoint x="523" y="1160" as="targetPoint" />
            <Array as="points">
              <mxPoint x="600" y="1125" />
              <mxPoint x="523" y="1125" />
            </Array>
          </mxGeometry>
        </mxCell>
        <mxCell id="RrS9UAQe1hWwMfHWjZzp-102" value="" style="edgeStyle=orthogonalEdgeStyle;rounded=0;orthogonalLoop=1;jettySize=auto;html=1;endArrow=open;endFill=0;" edge="1" parent="1" source="RrS9UAQe1hWwMfHWjZzp-23" target="RrS9UAQe1hWwMfHWjZzp-26">
          <mxGeometry relative="1" as="geometry">
            <Array as="points">
              <mxPoint x="600" y="1125" />
              <mxPoint x="648" y="1125" />
            </Array>
          </mxGeometry>
        </mxCell>
        <mxCell id="RrS9UAQe1hWwMfHWjZzp-23" value="&lt;b&gt;Logging &amp;amp; Reporting&lt;/b&gt;" style="shape=component;align=left;spacingLeft=36;rounded=0;shadow=0;comic=0;labelBackgroundColor=none;strokeWidth=1;fontFamily=Verdana;fontSize=12;html=1;" vertex="1" parent="1">
          <mxGeometry x="525" y="1050" width="180" height="40" as="geometry" />
        </mxCell>
        <mxCell id="RrS9UAQe1hWwMfHWjZzp-26" value="«interface»&lt;br&gt;&lt;b&gt;LogEvaluation&lt;/b&gt;&lt;div&gt;(Exports results)&lt;/div&gt;" style="html=1;rounded=0;shadow=0;comic=0;labelBackgroundColor=none;strokeWidth=1;fontFamily=Verdana;fontSize=12;align=center;" vertex="1" parent="1">
          <mxGeometry x="590" y="1160" width="115" height="50" as="geometry" />
        </mxCell>
        <mxCell id="RrS9UAQe1hWwMfHWjZzp-41" value="«interface»&lt;br&gt;&lt;b&gt;ModelBuilder&lt;/b&gt;&lt;div&gt;(compiles the U-Net&amp;nbsp;&lt;/div&gt;&lt;div&gt;/ CNN model)&lt;/div&gt;" style="html=1;rounded=0;shadow=0;comic=0;labelBackgroundColor=none;strokeWidth=1;fontFamily=Verdana;fontSize=12;align=center;" vertex="1" parent="1">
          <mxGeometry x="230" y="935" width="150" height="60" as="geometry" />
        </mxCell>
        <mxCell id="RrS9UAQe1hWwMfHWjZzp-42" value="«interface»&lt;br&gt;&lt;b&gt;Predict&lt;/b&gt;&lt;div&gt;(lesion boundaries&lt;/div&gt;&lt;div&gt;on new images)&lt;/div&gt;" style="html=1;rounded=0;shadow=0;comic=0;labelBackgroundColor=none;strokeWidth=1;fontFamily=Verdana;fontSize=12;align=center;" vertex="1" parent="1">
          <mxGeometry x="410" y="1360" width="130" height="70" as="geometry" />
        </mxCell>
        <mxCell id="RrS9UAQe1hWwMfHWjZzp-43" value="«interface»&lt;br&gt;&lt;b&gt;EvaluateModel&lt;/b&gt;&lt;div&gt;(Tracks metrics (Dice, IoU, Loss),&lt;/div&gt;&lt;div&gt;Saves best checkpoints)&lt;/div&gt;" style="html=1;rounded=0;shadow=0;comic=0;labelBackgroundColor=none;strokeWidth=1;fontFamily=Verdana;fontSize=12;align=center;" vertex="1" parent="1">
          <mxGeometry x="490" y="700" width="220" height="70" as="geometry" />
        </mxCell>
        <mxCell id="RrS9UAQe1hWwMfHWjZzp-44" value="«interface»&lt;br&gt;&lt;b&gt;TrainModel&lt;/b&gt;&lt;div&gt;(Trains the model&lt;span style=&quot;background-color: transparent; color: light-dark(rgb(0, 0, 0), rgb(255, 255, 255));&quot;&gt;)&lt;/span&gt;&lt;/div&gt;" style="html=1;rounded=0;shadow=0;comic=0;labelBackgroundColor=none;strokeWidth=1;fontFamily=Verdana;fontSize=12;align=center;" vertex="1" parent="1">
          <mxGeometry x="340" y="700" width="120" height="50" as="geometry" />
        </mxCell>
        <mxCell id="RrS9UAQe1hWwMfHWjZzp-45" value="«interface»&lt;br&gt;&lt;b&gt;Visualize Output&lt;/b&gt;&lt;div&gt;(See segmented regions&lt;/div&gt;&lt;div&gt;with overlay masks)&lt;/div&gt;" style="html=1;rounded=0;shadow=0;comic=0;labelBackgroundColor=none;strokeWidth=1;fontFamily=Verdana;fontSize=12;align=center;" vertex="1" parent="1">
          <mxGeometry x="550" y="1360" width="160" height="70" as="geometry" />
        </mxCell>
        <mxCell id="RrS9UAQe1hWwMfHWjZzp-46" value="«interface»&lt;br&gt;&lt;b&gt;ModelPredictor&lt;/b&gt;&lt;div&gt;(predictions for evaluation&amp;nbsp;&lt;/div&gt;&lt;div&gt;&amp;amp; live testing)&lt;/div&gt;" style="html=1;rounded=0;shadow=0;comic=0;labelBackgroundColor=none;strokeWidth=1;fontFamily=Verdana;fontSize=12;align=center;" vertex="1" parent="1">
          <mxGeometry x="540" y="935" width="170" height="60" as="geometry" />
        </mxCell>
        <mxCell id="RrS9UAQe1hWwMfHWjZzp-105" value="" style="edgeStyle=orthogonalEdgeStyle;rounded=0;orthogonalLoop=1;jettySize=auto;html=1;endArrow=open;endFill=0;" edge="1" parent="1" source="RrS9UAQe1hWwMfHWjZzp-47" target="RrS9UAQe1hWwMfHWjZzp-43">
          <mxGeometry relative="1" as="geometry">
            <Array as="points">
              <mxPoint x="550" y="670" />
              <mxPoint x="620" y="670" />
            </Array>
          </mxGeometry>
        </mxCell>
        <mxCell id="RrS9UAQe1hWwMfHWjZzp-106" value="" style="edgeStyle=orthogonalEdgeStyle;rounded=0;orthogonalLoop=1;jettySize=auto;html=1;endArrow=open;endFill=0;" edge="1" parent="1" source="RrS9UAQe1hWwMfHWjZzp-47" target="RrS9UAQe1hWwMfHWjZzp-44">
          <mxGeometry relative="1" as="geometry">
            <Array as="points">
              <mxPoint x="550" y="670" />
              <mxPoint x="410" y="670" />
            </Array>
          </mxGeometry>
        </mxCell>
        <mxCell id="RrS9UAQe1hWwMfHWjZzp-47" value="&lt;b&gt;Training &amp;amp; Evaluation&lt;/b&gt;" style="shape=module;align=left;spacingLeft=20;align=center;verticalAlign=top;whiteSpace=wrap;html=1;" vertex="1" parent="1">
          <mxGeometry x="490" y="595" width="150" height="50" as="geometry" />
        </mxCell>
        <mxCell id="RrS9UAQe1hWwMfHWjZzp-103" value="" style="edgeStyle=orthogonalEdgeStyle;rounded=0;orthogonalLoop=1;jettySize=auto;html=1;endArrow=open;endFill=0;" edge="1" parent="1" source="RrS9UAQe1hWwMfHWjZzp-48">
          <mxGeometry relative="1" as="geometry">
            <mxPoint x="500" y="1360" as="targetPoint" />
            <Array as="points">
              <mxPoint x="580" y="1330" />
              <mxPoint x="501" y="1330" />
            </Array>
          </mxGeometry>
        </mxCell>
        <mxCell id="RrS9UAQe1hWwMfHWjZzp-104" value="" style="edgeStyle=orthogonalEdgeStyle;rounded=0;orthogonalLoop=1;jettySize=auto;html=1;endArrow=open;endFill=0;" edge="1" parent="1" source="RrS9UAQe1hWwMfHWjZzp-48" target="RrS9UAQe1hWwMfHWjZzp-45">
          <mxGeometry relative="1" as="geometry">
            <Array as="points">
              <mxPoint x="580" y="1330" />
              <mxPoint x="630" y="1330" />
            </Array>
          </mxGeometry>
        </mxCell>
        <mxCell id="RrS9UAQe1hWwMfHWjZzp-48" value="&lt;b&gt;Inference &amp;amp; Visualization&lt;/b&gt;" style="shape=module;align=left;spacingLeft=20;align=center;verticalAlign=top;whiteSpace=wrap;html=1;" vertex="1" parent="1">
          <mxGeometry x="540" y="1255" width="100" height="50" as="geometry" />
        </mxCell>
        <mxCell id="RrS9UAQe1hWwMfHWjZzp-55" value="" style="edgeStyle=orthogonalEdgeStyle;rounded=0;orthogonalLoop=1;jettySize=auto;html=1;" edge="1" parent="1">
          <mxGeometry relative="1" as="geometry">
            <mxPoint x="300" y="1360" as="sourcePoint" />
            <mxPoint x="390" y="1330" as="targetPoint" />
            <Array as="points">
              <mxPoint x="320" y="1360" />
              <mxPoint x="320" y="1330" />
            </Array>
          </mxGeometry>
        </mxCell>
        <mxCell id="RrS9UAQe1hWwMfHWjZzp-60" value="USES" style="edgeLabel;html=1;align=center;verticalAlign=middle;resizable=0;points=[];" vertex="1" connectable="0" parent="RrS9UAQe1hWwMfHWjZzp-55">
          <mxGeometry x="0.3538" y="-3" relative="1" as="geometry">
            <mxPoint y="-3" as="offset" />
          </mxGeometry>
        </mxCell>
        <mxCell id="RrS9UAQe1hWwMfHWjZzp-114" value="" style="edgeStyle=orthogonalEdgeStyle;rounded=0;orthogonalLoop=1;jettySize=auto;html=1;dashed=1;" edge="1" parent="1" source="RrS9UAQe1hWwMfHWjZzp-52">
          <mxGeometry relative="1" as="geometry">
            <mxPoint x="-50" y="490" as="targetPoint" />
            <Array as="points">
              <mxPoint x="-90" y="1370" />
              <mxPoint x="-90" y="490" />
            </Array>
          </mxGeometry>
        </mxCell>
        <mxCell id="RrS9UAQe1hWwMfHWjZzp-115" value="REWARD $$$" style="edgeLabel;html=1;align=center;verticalAlign=middle;resizable=0;points=[];" vertex="1" connectable="0" parent="RrS9UAQe1hWwMfHWjZzp-114">
          <mxGeometry x="-0.6714" y="-1" relative="1" as="geometry">
            <mxPoint as="offset" />
          </mxGeometry>
        </mxCell>
        <mxCell id="RrS9UAQe1hWwMfHWjZzp-52" value="RESEARCHER" style="shape=umlActor;verticalLabelPosition=bottom;verticalAlign=top;html=1;" vertex="1" parent="1">
          <mxGeometry x="250" y="1280" width="60" height="110" as="geometry" />
        </mxCell>
        <mxCell id="RrS9UAQe1hWwMfHWjZzp-111" value="" style="edgeStyle=orthogonalEdgeStyle;rounded=0;orthogonalLoop=1;jettySize=auto;html=1;endArrow=block;endFill=0;dashed=1;" edge="1" parent="1">
          <mxGeometry relative="1" as="geometry">
            <mxPoint x="-20" y="980" as="sourcePoint" />
            <mxPoint x="270" y="1335" as="targetPoint" />
            <Array as="points">
              <mxPoint x="-20" y="1335" />
              <mxPoint x="258" y="1335" />
            </Array>
          </mxGeometry>
        </mxCell>
        <mxCell id="RrS9UAQe1hWwMfHWjZzp-112" value="SENDED FROM DEVELOPER&amp;nbsp;" style="edgeLabel;html=1;align=center;verticalAlign=middle;resizable=0;points=[];" vertex="1" connectable="0" parent="RrS9UAQe1hWwMfHWjZzp-111">
          <mxGeometry x="0.5628" y="-4" relative="1" as="geometry">
            <mxPoint y="-4" as="offset" />
          </mxGeometry>
        </mxCell>
        <mxCell id="RrS9UAQe1hWwMfHWjZzp-53" value="SYSTEM" style="shape=umlActor;verticalLabelPosition=bottom;verticalAlign=top;html=1;" vertex="1" parent="1">
          <mxGeometry x="-60" y="830" width="70" height="120" as="geometry" />
        </mxCell>
        <mxCell id="RrS9UAQe1hWwMfHWjZzp-82" value="" style="edgeStyle=orthogonalEdgeStyle;rounded=0;orthogonalLoop=1;jettySize=auto;html=1;" edge="1" parent="1" target="39150e848f15840c-1">
          <mxGeometry relative="1" as="geometry">
            <mxPoint x="-25" y="460" as="sourcePoint" />
            <mxPoint x="300" y="170" as="targetPoint" />
            <Array as="points">
              <mxPoint x="-25" y="200" />
            </Array>
          </mxGeometry>
        </mxCell>
        <mxCell id="RrS9UAQe1hWwMfHWjZzp-84" value="TRIGGERS" style="edgeLabel;html=1;align=center;verticalAlign=middle;resizable=0;points=[];" vertex="1" connectable="0" parent="RrS9UAQe1hWwMfHWjZzp-82">
          <mxGeometry x="-0.4886" y="-1" relative="1" as="geometry">
            <mxPoint x="-1" y="51" as="offset" />
          </mxGeometry>
        </mxCell>
        <mxCell id="RrS9UAQe1hWwMfHWjZzp-54" value="DEVELOPER" style="shape=umlActor;verticalLabelPosition=bottom;verticalAlign=top;html=1;" vertex="1" parent="1">
          <mxGeometry x="-60" y="470" width="70" height="125" as="geometry" />
        </mxCell>
        <mxCell id="RrS9UAQe1hWwMfHWjZzp-72" value="" style="endArrow=none;endFill=1;endSize=12;html=1;rounded=0;startFill=0;strokeColor=light-dark(#f20d0d, #ededed);" edge="1" parent="1">
          <mxGeometry width="160" relative="1" as="geometry">
            <mxPoint x="190" y="1260" as="sourcePoint" />
            <mxPoint x="200" y="1260" as="targetPoint" />
          </mxGeometry>
        </mxCell>
        <mxCell id="RrS9UAQe1hWwMfHWjZzp-73" value="" style="rounded=0;orthogonalLoop=1;jettySize=auto;html=1;endArrow=halfCircle;endFill=0;endSize=6;strokeWidth=1;sketch=0;" edge="1" parent="1">
          <mxGeometry relative="1" as="geometry">
            <mxPoint x="190" y="900" as="sourcePoint" />
            <mxPoint x="90" y="900" as="targetPoint" />
          </mxGeometry>
        </mxCell>
        <mxCell id="RrS9UAQe1hWwMfHWjZzp-74" value="" style="rounded=0;orthogonalLoop=1;jettySize=auto;html=1;endArrow=oval;endFill=0;sketch=0;sourcePerimeterSpacing=0;targetPerimeterSpacing=0;endSize=10;exitX=0.571;exitY=0.583;exitDx=0;exitDy=0;exitPerimeter=0;" edge="1" parent="1" source="RrS9UAQe1hWwMfHWjZzp-53">
          <mxGeometry relative="1" as="geometry">
            <mxPoint x="10" y="900" as="sourcePoint" />
            <mxPoint x="80" y="900" as="targetPoint" />
          </mxGeometry>
        </mxCell>
        <mxCell id="RrS9UAQe1hWwMfHWjZzp-77" value="HAVES" style="edgeLabel;html=1;align=center;verticalAlign=middle;resizable=0;points=[];" vertex="1" connectable="0" parent="RrS9UAQe1hWwMfHWjZzp-74">
          <mxGeometry x="-0.0197" relative="1" as="geometry">
            <mxPoint x="111" as="offset" />
          </mxGeometry>
        </mxCell>
        <mxCell id="RrS9UAQe1hWwMfHWjZzp-75" value="" style="ellipse;whiteSpace=wrap;html=1;align=center;aspect=fixed;fillColor=none;strokeColor=none;resizable=0;perimeter=centerPerimeter;rotatable=0;allowArrows=0;points=[];outlineConnect=1;" vertex="1" parent="1">
          <mxGeometry x="160" y="900" width="10" height="10" as="geometry" />
        </mxCell>
        <mxCell id="RrS9UAQe1hWwMfHWjZzp-78" value="" style="endArrow=classic;html=1;rounded=0;" edge="1" parent="1">
          <mxGeometry width="50" height="50" relative="1" as="geometry">
            <mxPoint x="-25.5" y="620" as="sourcePoint" />
            <mxPoint x="-25.5" y="820" as="targetPoint" />
          </mxGeometry>
        </mxCell>
        <mxCell id="RrS9UAQe1hWwMfHWjZzp-80" value="MADES" style="edgeLabel;html=1;align=center;verticalAlign=middle;resizable=0;points=[];" vertex="1" connectable="0" parent="RrS9UAQe1hWwMfHWjZzp-78">
          <mxGeometry x="-0.18" y="2" relative="1" as="geometry">
            <mxPoint as="offset" />
          </mxGeometry>
        </mxCell>
        <mxCell id="RrS9UAQe1hWwMfHWjZzp-87" value="" style="rounded=0;orthogonalLoop=1;jettySize=auto;html=1;endArrow=halfCircle;endFill=0;endSize=6;strokeWidth=1;sketch=0;" edge="1" parent="1">
          <mxGeometry relative="1" as="geometry">
            <mxPoint x="398" y="390" as="sourcePoint" />
            <mxPoint x="330" y="390" as="targetPoint" />
          </mxGeometry>
        </mxCell>
        <mxCell id="RrS9UAQe1hWwMfHWjZzp-88" value="" style="rounded=0;orthogonalLoop=1;jettySize=auto;html=1;endArrow=oval;endFill=0;sketch=0;sourcePerimeterSpacing=0;targetPerimeterSpacing=0;endSize=10;" edge="1" parent="1">
          <mxGeometry relative="1" as="geometry">
            <mxPoint x="305" y="310" as="sourcePoint" />
            <mxPoint x="320" y="390" as="targetPoint" />
            <Array as="points">
              <mxPoint x="280" y="310" />
              <mxPoint x="280" y="390" />
            </Array>
          </mxGeometry>
        </mxCell>
        <mxCell id="RrS9UAQe1hWwMfHWjZzp-90" value="PROCEEDS" style="edgeLabel;html=1;align=center;verticalAlign=middle;resizable=0;points=[];" vertex="1" connectable="0" parent="RrS9UAQe1hWwMfHWjZzp-88">
          <mxGeometry x="-0.0575" y="4" relative="1" as="geometry">
            <mxPoint as="offset" />
          </mxGeometry>
        </mxCell>
        <mxCell id="RrS9UAQe1hWwMfHWjZzp-89" value="" style="ellipse;whiteSpace=wrap;html=1;align=center;aspect=fixed;fillColor=none;strokeColor=none;resizable=0;perimeter=centerPerimeter;rotatable=0;allowArrows=0;points=[];outlineConnect=1;" vertex="1" parent="1">
          <mxGeometry x="325" y="560" width="10" height="10" as="geometry" />
        </mxCell>
        <mxCell id="RrS9UAQe1hWwMfHWjZzp-93" value="" style="endArrow=none;endFill=1;endSize=12;html=1;rounded=0;startFill=1;startArrow=classic;" edge="1" parent="1">
          <mxGeometry width="160" relative="1" as="geometry">
            <mxPoint x="200" y="1250" as="sourcePoint" />
            <mxPoint x="400" y="1270" as="targetPoint" />
            <Array as="points">
              <mxPoint x="360" y="1250" />
              <mxPoint x="360" y="1270" />
            </Array>
          </mxGeometry>
        </mxCell>
        <mxCell id="RrS9UAQe1hWwMfHWjZzp-116" value="&lt;font style=&quot;font-size: 19px;&quot;&gt;COMPONENT DIAGRAM&lt;/font&gt;" style="text;html=1;align=center;verticalAlign=middle;resizable=0;points=[];autosize=1;strokeColor=none;fillColor=none;" vertex="1" parent="1">
          <mxGeometry x="-30" y="140" width="240" height="40" as="geometry" />
        </mxCell>
      </root>
    </mxGraphModel>
  </diagram>
</mxfile>
